<?xml version="1.0" encoding="UTF-8" standalone="no"?>
<!-- Created with Inkscape (http://www.inkscape.org/) -->
<svg
   xmlns:dc="http://purl.org/dc/elements/1.1/"
   xmlns:cc="http://creativecommons.org/ns#"
   xmlns:rdf="http://www.w3.org/1999/02/22-rdf-syntax-ns#"
   xmlns:svg="http://www.w3.org/2000/svg"
   xmlns="http://www.w3.org/2000/svg"
   xmlns:xlink="http://www.w3.org/1999/xlink"
   xmlns:sodipodi="http://sodipodi.sourceforge.net/DTD/sodipodi-0.dtd"
   xmlns:inkscape="http://www.inkscape.org/namespaces/inkscape"
   width="128"
   height="128"
   id="svg2459"
   sodipodi:version="0.32"
   inkscape:version="0.46"
   sodipodi:docname="Icon.svg"
   inkscape:output_extension="org.inkscape.output.svg.inkscape"
   version="1.0"
   inkscape:export-filename="/Users/remko/src/swift/Slimber/Resources/Icon-16.png"
   inkscape:export-xdpi="11.25"
   inkscape:export-ydpi="11.25">
  <defs
     id="defs2461">
    <linearGradient
       id="linearGradient3217">
      <stop
         style="stop-color:#000000;stop-opacity:1;"
         offset="0"
         id="stop3219" />
      <stop
         style="stop-color:#ffffff;stop-opacity:1;"
         offset="1"
         id="stop3221" />
    </linearGradient>
    <linearGradient
       id="linearGradient3156">
      <stop
         style="stop-color:#fe9b50;stop-opacity:1;"
         offset="0"
         id="stop3158" />
      <stop
         style="stop-color:#9f4500;stop-opacity:1;"
         offset="1"
         id="stop3160" />
    </linearGradient>
    <inkscape:perspective
       sodipodi:type="inkscape:persp3d"
       inkscape:vp_x="0 : 526.18109 : 1"
       inkscape:vp_y="0 : 1000 : 0"
       inkscape:vp_z="744.09448 : 526.18109 : 1"
       inkscape:persp3d-origin="372.04724 : 350.78739 : 1"
       id="perspective2390" />
    <linearGradient
       inkscape:collect="always"
       xlink:href="#linearGradient3156"
       id="linearGradient3162"
       x1="68.071358"
       y1="68.620354"
       x2="67.328606"
       y2="19.351492"
       gradientUnits="userSpaceOnUse" />
  </defs>
  <sodipodi:namedview
     id="base"
     pagecolor="#ffffff"
     bordercolor="#666666"
     borderopacity="1.0"
     gridtolerance="10000"
     guidetolerance="10"
     objecttolerance="10"
     inkscape:pageopacity="0.0"
     inkscape:pageshadow="2"
     inkscape:zoom="4.0390625"
     inkscape:cx="64"
     inkscape:cy="66.885091"
     inkscape:document-units="px"
     inkscape:current-layer="layer1"
     showgrid="false"
     inkscape:window-width="886"
     inkscape:window-height="713"
     inkscape:window-x="181"
     inkscape:window-y="32" />
  <metadata
     id="metadata2464">
    <rdf:RDF>
      <cc:Work
         rdf:about="">
        <dc:format>image/svg+xml</dc:format>
        <dc:type
           rdf:resource="http://purl.org/dc/dcmitype/StillImage" />
      </cc:Work>
    </rdf:RDF>
  </metadata>
  <g
     inkscape:label="Layer 1"
     inkscape:groupmode="layer"
     id="layer1">
    <path
       sodipodi:type="inkscape:offset"
       inkscape:radius="0"
       inkscape:original="M 35.75 21.4375 C 67.770833 28.589068 61.962345 38.980958 48.59375 47.71875 C 42.117938 49.826519 34.459217 52.284088 23.875 55.28125 C 28.767848 54.681471 33.106944 54.336611 37.125 54.125 C 33.141375 56.073855 29.188794 57.883088 25.75 59.34375 C 34.172431 57.138896 40.17062 55.635095 46.34375 54.09375 C 68.404841 54.936763 70.366936 64.588264 50.03125 83.5 C 80.52166 67.640036 88.246281 56.011556 70.21875 48.46875 C 79.529352 46.508168 83.310469 46.138239 85.28125 46.3125 C 80.487749 43.302683 77.123885 41.944256 73.40625 41.6875 C 81.713537 30.753386 64.586454 23.918546 35.75 21.4375 z M 73.9375 43.25 C 74.54083 43.25 75.03125 43.724312 75.03125 44.28125 C 75.031251 44.83819 74.54083 45.28125 73.9375 45.28125 C 73.33417 45.281249 72.84375 44.838189 72.84375 44.28125 C 72.84375 43.724313 73.33417 43.25 73.9375 43.25 z "
       style="fill:#585858;fill-opacity:1;fill-rule:nonzero;stroke:#333333;stroke-width:0.59638305999999996;stroke-linecap:butt;stroke-linejoin:miter;stroke-opacity:1;stroke-miterlimit:4;stroke-dasharray:none"
       id="path3154"
       d="M 35.75,21.4375 C 67.770833,28.589068 61.962345,38.980958 48.59375,47.71875 C 42.117938,49.826519 34.459217,52.284088 23.875,55.28125 C 28.767848,54.681471 33.106944,54.336611 37.125,54.125 C 33.141375,56.073855 29.188794,57.883088 25.75,59.34375 C 34.172431,57.138896 40.17062,55.635095 46.34375,54.09375 C 68.404841,54.936763 70.366936,64.588264 50.03125,83.5 C 80.52166,67.640036 88.246281,56.011556 70.21875,48.46875 C 79.529352,46.508168 83.310469,46.138239 85.28125,46.3125 C 80.487749,43.302683 77.123885,41.944256 73.40625,41.6875 C 81.713537,30.753386 64.586454,23.918546 35.75,21.4375 z M 73.9375,43.25 C 74.54083,43.25 75.03125,43.724312 75.03125,44.28125 C 75.031251,44.83819 74.54083,45.28125 73.9375,45.28125 C 73.33417,45.281249 72.84375,44.838189 72.84375,44.28125 C 72.84375,43.724313 73.33417,43.25 73.9375,43.25 z"
       transform="matrix(1.5329782,0,0,1.5087872,-34.813863,0.3399684)" />
    <path
       sodipodi:type="inkscape:offset"
       inkscape:radius="0"
       inkscape:original="M 35.75 21.4375 C 67.770833 28.589068 61.962345 38.980958 48.59375 47.71875 C 42.117938 49.826519 34.459217 52.284088 23.875 55.28125 C 28.767848 54.681471 33.106944 54.336611 37.125 54.125 C 33.141375 56.073855 29.188794 57.883088 25.75 59.34375 C 34.172431 57.138896 40.17062 55.635095 46.34375 54.09375 C 68.404841 54.936763 70.366936 64.588264 50.03125 83.5 C 80.52166 67.640036 88.246281 56.011556 70.21875 48.46875 C 79.529352 46.508168 83.310469 46.138239 85.28125 46.3125 C 80.487749 43.302683 77.123885 41.944256 73.40625 41.6875 C 81.713537 30.753386 64.586454 23.918546 35.75 21.4375 z M 73.9375 43.25 C 74.54083 43.25 75.03125 43.724312 75.03125 44.28125 C 75.031251 44.83819 74.54083 45.28125 73.9375 45.28125 C 73.33417 45.281249 72.84375 44.838189 72.84375 44.28125 C 72.84375 43.724313 73.33417 43.25 73.9375 43.25 z "
       style="fill:url(#linearGradient3162);fill-opacity:1;fill-rule:nonzero;stroke:#a34500;stroke-width:0.5;stroke-linecap:butt;stroke-linejoin:miter;stroke-miterlimit:4;stroke-dasharray:none;stroke-opacity:1"
       id="path2382"
       d="M 35.75,21.4375 C 67.770833,28.589068 61.962345,38.980958 48.59375,47.71875 C 42.117938,49.826519 34.459217,52.284088 23.875,55.28125 C 28.767848,54.681471 33.106944,54.336611 37.125,54.125 C 33.141375,56.073855 29.188794,57.883088 25.75,59.34375 C 34.172431,57.138896 40.17062,55.635095 46.34375,54.09375 C 68.404841,54.936763 70.366936,64.588264 50.03125,83.5 C 80.52166,67.640036 88.246281,56.011556 70.21875,48.46875 C 79.529352,46.508168 83.310469,46.138239 85.28125,46.3125 C 80.487749,43.302683 77.123885,41.944256 73.40625,41.6875 C 81.713537,30.753386 64.586454,23.918546 35.75,21.4375 z M 73.9375,43.25 C 74.54083,43.25 75.03125,43.724312 75.03125,44.28125 C 75.031251,44.83819 74.54083,45.28125 73.9375,45.28125 C 73.33417,45.281249 72.84375,44.838189 72.84375,44.28125 C 72.84375,43.724313 73.33417,43.25 73.9375,43.25 z"
       transform="matrix(1.8135246,0,0,1.8135246,-28.469382,-25.953029)" />
    <path
       sodipodi:type="inkscape:offset"
       inkscape:radius="0"
       inkscape:original="M 35.75 21.4375 C 67.770833 28.589068 61.962345 38.980958 48.59375 47.71875 C 42.117938 49.826519 34.459217 52.284088 23.875 55.28125 C 28.767848 54.681471 33.106944 54.336611 37.125 54.125 C 33.141375 56.073855 29.188794 57.883088 25.75 59.34375 C 34.172431 57.138896 40.17062 55.635095 46.34375 54.09375 C 68.404841 54.936763 70.366936 64.588264 50.03125 83.5 C 80.52166 67.640036 88.246281 56.011556 70.21875 48.46875 C 79.529352 46.508168 83.310469 46.138239 85.28125 46.3125 C 80.487749 43.302683 77.123885 41.944256 73.40625 41.6875 C 81.713537 30.753386 64.586454 23.918546 35.75 21.4375 z M 73.9375 43.25 C 74.54083 43.25 75.03125 43.724312 75.03125 44.28125 C 75.031251 44.83819 74.54083 45.28125 73.9375 45.28125 C 73.33417 45.281249 72.84375 44.838189 72.84375 44.28125 C 72.84375 43.724313 73.33417 43.25 73.9375 43.25 z "
       style="fill:#000000;fill-opacity:1;fill-rule:nonzero;stroke:#000000;stroke-width:0.10801075000000000px;stroke-linecap:butt;stroke-linejoin:miter;stroke-opacity:1"
       id="path2380"
       d="M 35.75,21.4375 C 67.770833,28.589068 61.962345,38.980958 48.59375,47.71875 C 42.117938,49.826519 34.459217,52.284088 23.875,55.28125 C 28.767848,54.681471 33.106944,54.336611 37.125,54.125 C 33.141375,56.073855 29.188794,57.883088 25.75,59.34375 C 34.172431,57.138896 40.17062,55.635095 46.34375,54.09375 C 68.404841,54.936763 70.366936,64.588264 50.03125,83.5 C 80.52166,67.640036 88.246281,56.011556 70.21875,48.46875 C 79.529352,46.508168 83.310469,46.138239 85.28125,46.3125 C 80.487749,43.302683 77.123885,41.944256 73.40625,41.6875 C 81.713537,30.753386 64.586454,23.918546 35.75,21.4375 z M 73.9375,43.25 C 74.54083,43.25 75.03125,43.724312 75.03125,44.28125 C 75.031251,44.83819 74.54083,45.28125 73.9375,45.28125 C 73.33417,45.281249 72.84375,44.838189 72.84375,44.28125 C 72.84375,43.724313 73.33417,43.25 73.9375,43.25 z"
       transform="matrix(1.4645354,0,0,1.4645354,-32.624604,-27.384051)" />
  </g>
</svg>
