<?xml version="1.0" encoding="UTF-8" standalone="no"?>
<!DOCTYPE svg PUBLIC "-//W3C//DTD SVG 1.1//EN" "http://www.w3.org/Graphics/SVG/1.1/DTD/svg11.dtd">
<svg width="100%" height="100%" viewBox="0 0 133 133" version="1.1" xmlns="http://www.w3.org/2000/svg" xmlns:xlink="http://www.w3.org/1999/xlink" xml:space="preserve" style="fill-rule:evenodd;clip-rule:evenodd;stroke-linejoin:round;stroke-miterlimit:1.41421;">
    <g id="Layer-1" transform="matrix(1,0,0,1,0,-164.708)">
        <g id="path4233" transform="matrix(1.00826,0,0,1.00826,-0.546361,-1.90685)">
            <circle cx="66.146" cy="230.854" r="65.604" style="fill:rgb(224,102,102);"/>
            <path d="M66.57,165.252L66.993,165.256L67.416,165.262L67.838,165.272L68.259,165.284L68.68,165.298L69.1,165.316L69.52,165.336L69.938,165.358L70.356,165.383L70.774,165.411L71.19,165.442L71.606,165.475L72.021,165.51L72.436,165.548L72.849,165.589L73.262,165.632L73.675,165.678L74.086,165.727L74.497,165.778L74.906,165.831L75.315,165.887L75.724,165.946L76.131,166.007L76.538,166.07L76.943,166.136L77.348,166.205L77.753,166.276L78.156,166.349L78.558,166.425L78.96,166.503L79.36,166.584L79.76,166.667L80.159,166.753L80.557,166.841L80.954,166.931L81.35,167.024L81.746,167.119L82.14,167.217L82.533,167.317L82.926,167.419L83.317,167.524L83.708,167.631L84.097,167.741L84.486,167.852L84.873,167.967L85.26,168.083L85.645,168.202L86.03,168.323L86.414,168.446L86.796,168.572L87.178,168.7L87.558,168.83L87.937,168.962L88.316,169.097L88.693,169.234L89.069,169.373L89.444,169.514L89.818,169.658L90.191,169.804L90.563,169.952L90.934,170.102L91.303,170.255L91.672,170.409L92.039,170.566L92.405,170.725L92.77,170.886L93.134,171.049L93.496,171.215L93.858,171.382L94.218,171.552L94.577,171.724L94.935,171.898L95.292,172.074L95.647,172.252L96.001,172.432L96.354,172.614L96.706,172.798L97.057,172.985L97.406,173.173L97.754,173.364L98.1,173.556L98.446,173.751L98.79,173.947L99.133,174.146L99.474,174.346L99.814,174.549L100.153,174.754L100.491,174.96L100.827,175.169L101.162,175.379L101.495,175.592L101.827,175.806L102.158,176.022L102.487,176.241L102.815,176.461L103.141,176.683L103.467,176.907L103.79,177.133L104.113,177.361L104.433,177.59L104.753,177.822L105.071,178.055L105.387,178.291L105.702,178.528L106.016,178.767L106.328,179.007L106.639,179.25L106.948,179.495L107.255,179.741L107.561,179.989L107.866,180.239L108.169,180.49L108.471,180.744L108.77,180.999L109.069,181.256L109.366,181.515L109.661,181.775L109.955,182.037L110.247,182.301L110.537,182.567L110.826,182.834L111.114,183.104L111.399,183.374L111.683,183.647L111.966,183.921L112.247,184.197L112.526,184.474L112.803,184.753L113.079,185.034L113.353,185.317L113.626,185.601L113.896,185.886L114.166,186.174L114.433,186.463L114.699,186.753L114.963,187.045L115.225,187.339L115.485,187.634L115.744,187.931L116.001,188.23L116.256,188.529L116.51,188.831L116.761,189.134L117.011,189.439L117.259,189.745L117.505,190.052L117.75,190.361L117.993,190.672L118.233,190.984L118.472,191.298L118.709,191.613L118.945,191.929L119.178,192.247L119.41,192.567L119.639,192.887L119.867,193.21L120.093,193.533L120.317,193.859L120.539,194.185L120.759,194.513L120.978,194.842L121.194,195.173L121.408,195.505L121.621,195.838L121.831,196.173L122.04,196.509L122.246,196.847L122.451,197.186L122.654,197.526L122.854,197.867L123.053,198.21L123.249,198.554L123.444,198.9L123.636,199.246L123.827,199.594L124.015,199.943L124.202,200.294L124.386,200.646L124.568,200.999L124.748,201.353L124.927,201.708L125.102,202.065L125.276,202.423L125.448,202.782L125.618,203.142L125.785,203.504L125.951,203.866L126.114,204.23L126.275,204.595L126.434,204.961L126.591,205.328L126.746,205.697L126.898,206.066L127.048,206.437L127.196,206.809L127.342,207.182L127.486,207.556L127.627,207.931L127.766,208.307L127.903,208.684L128.038,209.063L128.17,209.442L128.3,209.822L128.428,210.204L128.554,210.586L128.677,210.97L128.798,211.355L128.917,211.74L129.033,212.127L129.148,212.514L129.259,212.903L129.369,213.292L129.476,213.683L129.581,214.074L129.683,214.467L129.783,214.86L129.881,215.255L129.976,215.65L130.069,216.046L130.159,216.443L130.247,216.841L130.333,217.24L130.416,217.64L130.497,218.04L130.575,218.442L130.651,218.844L130.724,219.247L130.795,219.652L130.864,220.057L130.93,220.462L130.993,220.869L131.054,221.276L131.113,221.685L131.169,222.094L131.222,222.503L131.273,222.914L131.322,223.325L131.368,223.738L131.411,224.151L131.452,224.564L131.49,224.979L131.525,225.394L131.558,225.81L131.589,226.226L131.617,226.644L131.642,227.062L131.664,227.48L131.684,227.9L131.702,228.32L131.716,228.741L131.728,229.162L131.738,229.584L131.744,230.007L131.748,230.43L131.75,230.854L131.748,231.278L131.744,231.702L131.738,232.124L131.728,232.546L131.716,232.968L131.702,233.389L131.684,233.809L131.664,234.228L131.642,234.647L131.617,235.065L131.589,235.482L131.558,235.899L131.525,236.315L131.49,236.73L131.452,237.144L131.411,237.558L131.368,237.971L131.322,238.383L131.273,238.794L131.222,239.205L131.169,239.615L131.113,240.024L131.054,240.432L130.993,240.839L130.93,241.246L130.864,241.652L130.795,242.057L130.724,242.461L130.651,242.864L130.575,243.266L130.497,243.668L130.416,244.069L130.333,244.468L130.247,244.867L130.159,245.265L130.069,245.662L129.976,246.059L129.881,246.454L129.783,246.848L129.683,247.242L129.581,247.634L129.476,248.025L129.369,248.416L129.259,248.805L129.148,249.194L129.033,249.582L128.917,249.968L128.798,250.354L128.677,250.738L128.554,251.122L128.428,251.504L128.3,251.886L128.17,252.266L128.038,252.646L127.903,253.024L127.766,253.401L127.627,253.777L127.486,254.153L127.342,254.527L127.196,254.899L127.048,255.271L126.898,255.642L126.746,256.012L126.591,256.38L126.434,256.747L126.275,257.113L126.114,257.478L125.951,257.842L125.785,258.205L125.618,258.566L125.448,258.927L125.276,259.286L125.102,259.643L124.927,260L124.748,260.356L124.568,260.71L124.386,261.063L124.202,261.414L124.015,261.765L123.827,262.114L123.636,262.462L123.444,262.809L123.249,263.154L123.053,263.498L122.854,263.841L122.654,264.182L122.451,264.523L122.246,264.861L122.04,265.199L121.831,265.535L121.621,265.87L121.408,266.203L121.194,266.535L120.978,266.866L120.759,267.195L120.539,267.523L120.317,267.85L120.093,268.175L119.867,268.499L119.639,268.821L119.41,269.142L119.178,269.461L118.945,269.779L118.709,270.096L118.472,270.411L118.233,270.724L117.993,271.036L117.75,271.347L117.505,271.656L117.259,271.964L117.011,272.27L116.761,272.574L116.51,272.877L116.256,273.179L116.001,273.479L115.744,273.777L115.485,274.074L115.225,274.369L114.963,274.663L114.699,274.955L114.433,275.246L114.166,275.535L113.896,275.822L113.626,276.108L113.353,276.392L113.079,276.674L112.803,276.955L112.526,277.234L112.247,277.512L111.966,277.787L111.683,278.062L111.399,278.334L111.114,278.605L110.826,278.874L110.537,279.141L110.247,279.407L109.955,279.671L109.661,279.933L109.366,280.194L109.069,280.452L108.77,280.709L108.471,280.964L108.169,281.218L107.866,281.47L107.561,281.719L107.255,281.967L106.948,282.214L106.639,282.458L106.328,282.701L106.016,282.942L105.702,283.181L105.387,283.418L105.071,283.653L104.753,283.887L104.433,284.118L104.113,284.348L103.79,284.576L103.467,284.801L103.141,285.025L102.815,285.248L102.487,285.468L102.158,285.686L101.827,285.902L101.495,286.117L101.162,286.329L100.827,286.54L100.491,286.748L100.153,286.955L99.814,287.159L99.474,287.362L99.133,287.563L98.79,287.761L98.446,287.958L98.1,288.152L97.754,288.345L97.406,288.535L97.057,288.724L96.706,288.91L96.354,289.094L96.001,289.277L95.647,289.457L95.292,289.635L94.935,289.811L94.577,289.985L94.218,290.157L93.858,290.326L93.496,290.494L93.134,290.659L92.77,290.822L92.405,290.983L92.039,291.142L91.672,291.299L91.303,291.454L90.934,291.606L90.563,291.757L90.191,291.905L89.818,292.05L89.444,292.194L89.069,292.335L88.693,292.475L88.316,292.611L87.937,292.746L87.558,292.879L87.178,293.009L86.796,293.137L86.414,293.262L86.03,293.386L85.645,293.507L85.26,293.625L84.873,293.742L84.486,293.856L84.097,293.968L83.708,294.077L83.317,294.184L82.926,294.289L82.533,294.391L82.14,294.491L81.746,294.589L81.35,294.684L80.954,294.777L80.557,294.867L80.159,294.955L79.76,295.041L79.36,295.124L78.96,295.205L78.558,295.283L78.156,295.359L77.753,295.433L77.348,295.504L76.943,295.572L76.538,295.638L76.131,295.702L75.724,295.763L75.315,295.821L74.906,295.877L74.497,295.931L74.086,295.982L73.675,296.03L73.262,296.076L72.849,296.119L72.436,296.16L72.021,296.198L71.606,296.234L71.19,296.267L70.774,296.297L70.356,296.325L69.938,296.35L69.52,296.373L69.1,296.393L68.68,296.41L68.259,296.425L67.838,296.437L67.416,296.446L66.993,296.453L66.57,296.457L66.146,296.458L65.722,296.457L65.298,296.453L64.876,296.446L64.454,296.437L64.032,296.425L63.611,296.41L63.191,296.393L62.772,296.373L62.353,296.35L61.935,296.325L61.518,296.297L61.101,296.267L60.685,296.234L60.27,296.198L59.856,296.16L59.442,296.119L59.029,296.076L58.617,296.03L58.206,295.982L57.795,295.931L57.385,295.877L56.976,295.821L56.568,295.763L56.161,295.702L55.754,295.638L55.348,295.572L54.943,295.504L54.539,295.433L54.136,295.359L53.734,295.283L53.332,295.205L52.931,295.124L52.532,295.041L52.133,294.955L51.735,294.867L51.338,294.777L50.941,294.684L50.546,294.589L50.152,294.491L49.758,294.391L49.366,294.289L48.975,294.184L48.584,294.077L48.195,293.968L47.806,293.856L47.418,293.742L47.032,293.625L46.646,293.507L46.262,293.386L45.878,293.262L45.496,293.137L45.114,293.009L44.734,292.879L44.354,292.746L43.976,292.611L43.599,292.475L43.223,292.335L42.847,292.194L42.473,292.05L42.101,291.905L41.729,291.757L41.358,291.606L40.988,291.454L40.62,291.299L40.253,291.142L39.887,290.983L39.522,290.822L39.158,290.659L38.795,290.494L38.434,290.326L38.073,290.157L37.714,289.985L37.357,289.811L37,289.635L36.644,289.457L36.29,289.277L35.937,289.094L35.586,288.91L35.235,288.724L34.886,288.535L34.538,288.345L34.191,288.152L33.846,287.958L33.502,287.761L33.159,287.563L32.818,287.362L32.477,287.159L32.139,286.955L31.801,286.748L31.465,286.54L31.13,286.329L30.797,286.117L30.465,285.902L30.134,285.686L29.805,285.468L29.477,285.248L29.15,285.025L28.825,284.801L28.501,284.576L28.179,284.348L27.858,284.118L27.539,283.887L27.221,283.653L26.904,283.418L26.589,283.181L26.276,282.942L25.964,282.701L25.653,282.458L25.344,282.214L25.036,281.967L24.73,281.719L24.426,281.47L24.123,281.218L23.821,280.964L23.521,280.709L23.223,280.452L22.926,280.194L22.631,279.933L22.337,279.671L22.045,279.407L21.754,279.141L21.465,278.874L21.178,278.605L20.892,278.334L20.608,278.062L20.326,277.787L20.045,277.512L19.766,277.234L19.488,276.955L19.213,276.674L18.938,276.392L18.666,276.108L18.395,275.822L18.126,275.535L17.859,275.246L17.593,274.955L17.329,274.663L17.067,274.369L16.806,274.074L16.548,273.777L16.291,273.479L16.036,273.179L15.782,272.877L15.53,272.574L15.281,272.27L15.033,271.964L14.786,271.656L14.542,271.347L14.299,271.036L14.058,270.724L13.819,270.411L13.582,270.096L13.347,269.779L13.113,269.461L12.882,269.142L12.652,268.821L12.424,268.499L12.199,268.175L11.975,267.85L11.752,267.523L11.532,267.195L11.314,266.866L11.098,266.535L10.883,266.203L10.671,265.87L10.46,265.535L10.252,265.199L10.045,264.861L9.841,264.523L9.638,264.182L9.437,263.841L9.239,263.498L9.042,263.154L8.848,262.809L8.655,262.462L8.465,262.114L8.276,261.765L8.09,261.414L7.906,261.063L7.723,260.71L7.543,260.356L7.365,260L7.189,259.643L7.015,259.286L6.844,258.927L6.674,258.566L6.506,258.205L6.341,257.842L6.178,257.478L6.017,257.113L5.858,256.747L5.701,256.38L5.546,256.012L5.394,255.642L5.243,255.271L5.095,254.899L4.95,254.527L4.806,254.153L4.665,253.777L4.525,253.401L4.389,253.024L4.254,252.646L4.121,252.266L3.991,251.886L3.863,251.504L3.738,251.122L3.614,250.738L3.493,250.354L3.375,249.968L3.258,249.582L3.144,249.194L3.032,248.805L2.923,248.416L2.816,248.025L2.711,247.634L2.609,247.242L2.509,246.848L2.411,246.454L2.316,246.059L2.223,245.662L2.133,245.265L2.045,244.867L1.959,244.468L1.876,244.069L1.795,243.668L1.717,243.266L1.641,242.864L1.567,242.461L1.496,242.057L1.428,241.652L1.362,241.246L1.298,240.839L1.237,240.432L1.179,240.024L1.123,239.615L1.069,239.205L1.018,238.794L0.97,238.383L0.924,237.971L0.881,237.558L0.84,237.144L0.802,236.73L0.766,236.315L0.733,235.899L0.703,235.482L0.675,235.065L0.65,234.647L0.627,234.228L0.607,233.809L0.59,233.389L0.575,232.968L0.563,232.546L0.554,232.124L0.547,231.702L0.543,231.278L0.542,230.854L0.543,230.43L0.547,230.007L0.554,229.584L0.563,229.162L0.575,228.741L0.59,228.32L0.607,227.9L0.627,227.48L0.65,227.062L0.675,226.644L0.703,226.226L0.733,225.81L0.766,225.394L0.802,224.979L0.84,224.564L0.881,224.151L0.924,223.738L0.97,223.325L1.018,222.914L1.069,222.503L1.123,222.094L1.179,221.685L1.237,221.276L1.298,220.869L1.362,220.462L1.428,220.057L1.496,219.652L1.567,219.247L1.641,218.844L1.717,218.442L1.795,218.04L1.876,217.64L1.959,217.24L2.045,216.841L2.133,216.443L2.223,216.046L2.316,215.65L2.411,215.255L2.509,214.86L2.609,214.467L2.711,214.074L2.816,213.683L2.923,213.292L3.032,212.903L3.144,212.514L3.258,212.127L3.375,211.74L3.493,211.355L3.614,210.97L3.738,210.586L3.863,210.204L3.991,209.822L4.121,209.442L4.254,209.063L4.389,208.684L4.525,208.307L4.665,207.931L4.806,207.556L4.95,207.182L5.095,206.809L5.243,206.437L5.394,206.066L5.546,205.697L5.701,205.328L5.858,204.961L6.017,204.595L6.178,204.23L6.341,203.866L6.506,203.504L6.674,203.142L6.844,202.782L7.015,202.423L7.189,202.065L7.365,201.708L7.543,201.353L7.723,200.999L7.906,200.646L8.09,200.294L8.276,199.943L8.465,199.594L8.655,199.246L8.848,198.9L9.042,198.554L9.239,198.21L9.437,197.867L9.638,197.526L9.841,197.186L10.045,196.847L10.252,196.509L10.46,196.173L10.671,195.838L10.883,195.505L11.098,195.173L11.314,194.842L11.532,194.513L11.752,194.185L11.975,193.859L12.199,193.533L12.424,193.21L12.652,192.887L12.882,192.567L13.113,192.247L13.347,191.929L13.582,191.613L13.819,191.298L14.058,190.984L14.299,190.672L14.542,190.361L14.786,190.052L15.033,189.745L15.281,189.439L15.53,189.134L15.782,188.831L16.036,188.529L16.291,188.23L16.548,187.931L16.806,187.634L17.067,187.339L17.329,187.045L17.593,186.753L17.859,186.463L18.126,186.174L18.395,185.886L18.666,185.601L18.938,185.317L19.213,185.034L19.488,184.753L19.766,184.474L20.045,184.197L20.326,183.921L20.608,183.647L20.892,183.374L21.178,183.104L21.465,182.834L21.754,182.567L22.045,182.301L22.337,182.037L22.631,181.775L22.926,181.515L23.223,181.256L23.521,180.999L23.821,180.744L24.123,180.49L24.426,180.239L24.73,179.989L25.036,179.741L25.344,179.495L25.653,179.25L25.964,179.007L26.276,178.767L26.589,178.528L26.904,178.291L27.221,178.055L27.539,177.822L27.858,177.59L28.179,177.361L28.501,177.133L28.825,176.907L29.15,176.683L29.477,176.461L29.805,176.241L30.134,176.022L30.465,175.806L30.797,175.592L31.13,175.379L31.465,175.169L31.801,174.96L32.139,174.754L32.477,174.549L32.818,174.346L33.159,174.146L33.502,173.947L33.846,173.751L34.191,173.556L34.538,173.364L34.886,173.173L35.235,172.985L35.586,172.798L35.937,172.614L36.29,172.432L36.644,172.252L37,172.074L37.357,171.898L37.714,171.724L38.073,171.552L38.434,171.382L38.795,171.215L39.158,171.049L39.522,170.886L39.887,170.725L40.253,170.566L40.62,170.409L40.988,170.255L41.358,170.102L41.729,169.952L42.101,169.804L42.473,169.658L42.847,169.514L43.223,169.373L43.599,169.234L43.976,169.097L44.354,168.962L44.734,168.83L45.114,168.7L45.496,168.572L45.878,168.446L46.262,168.323L46.646,168.202L47.032,168.083L47.418,167.967L47.806,167.852L48.195,167.741L48.584,167.631L48.975,167.524L49.366,167.419L49.758,167.317L50.152,167.217L50.546,167.119L50.941,167.024L51.338,166.931L51.735,166.841L52.133,166.753L52.532,166.667L52.931,166.584L53.332,166.503L53.734,166.425L54.136,166.349L54.539,166.276L54.943,166.205L55.348,166.136L55.754,166.07L56.161,166.007L56.568,165.946L56.976,165.887L57.385,165.831L57.795,165.778L58.206,165.727L58.617,165.678L59.029,165.632L59.442,165.589L59.856,165.548L60.27,165.51L60.685,165.475L61.101,165.442L61.518,165.411L61.935,165.383L62.353,165.358L62.772,165.336L63.191,165.316L63.611,165.298L64.032,165.284L64.454,165.272L64.876,165.262L65.298,165.256L65.722,165.252L66.146,165.25L66.57,165.252ZM65.741,168.252L65.337,168.255L64.933,168.262L64.53,168.271L64.127,168.282L63.726,168.296L63.325,168.313L62.924,168.332L62.524,168.353L62.125,168.377L61.727,168.404L61.329,168.433L60.932,168.465L60.536,168.498L60.141,168.535L59.746,168.574L59.352,168.615L58.958,168.659L58.566,168.705L58.174,168.754L57.783,168.805L57.393,168.858L57.003,168.914L56.614,168.972L56.226,169.033L55.839,169.096L55.453,169.161L55.067,169.229L54.683,169.299L54.299,169.371L53.916,169.446L53.533,169.523L53.152,169.602L52.771,169.684L52.392,169.768L52.013,169.854L51.635,169.943L51.258,170.034L50.882,170.127L50.507,170.222L50.132,170.32L49.759,170.42L49.386,170.522L49.015,170.626L48.644,170.733L48.275,170.842L47.906,170.953L47.538,171.066L47.171,171.182L46.805,171.299L46.44,171.419L46.076,171.541L45.714,171.665L45.352,171.792L44.991,171.92L44.631,172.051L44.272,172.183L43.914,172.318L43.557,172.455L43.202,172.594L42.847,172.736L42.493,172.879L42.141,173.024L41.789,173.172L41.439,173.321L41.09,173.473L40.742,173.627L40.394,173.783L40.048,173.94L39.704,174.1L39.36,174.262L39.017,174.426L38.676,174.592L38.336,174.76L37.996,174.93L37.658,175.102L37.322,175.275L36.986,175.451L36.652,175.629L36.318,175.809L35.986,175.991L35.656,176.174L35.326,176.36L34.998,176.548L34.671,176.737L34.345,176.929L34.02,177.122L33.697,177.317L33.375,177.514L33.054,177.713L32.735,177.914L32.416,178.117L32.099,178.321L31.784,178.528L31.47,178.736L31.157,178.946L30.845,179.158L30.535,179.372L30.226,179.588L29.918,179.805L29.612,180.024L29.307,180.245L29.003,180.468L28.701,180.693L28.401,180.919L28.101,181.147L27.803,181.377L27.507,181.609L27.212,181.842L26.918,182.077L26.626,182.314L26.335,182.552L26.046,182.793L25.758,183.035L25.472,183.278L25.187,183.524L24.904,183.77L24.622,184.019L24.342,184.269L24.063,184.521L23.785,184.775L23.51,185.03L23.235,185.287L22.963,185.546L22.691,185.806L22.422,186.067L22.154,186.331L21.887,186.596L21.622,186.862L21.359,187.13L21.097,187.4L20.837,187.671L20.579,187.944L20.322,188.218L20.067,188.494L19.813,188.771L19.561,189.05L19.311,189.33L19.062,189.612L18.815,189.896L18.57,190.18L18.326,190.467L18.084,190.754L17.844,191.044L17.606,191.334L17.369,191.627L17.134,191.92L16.9,192.215L16.669,192.512L16.439,192.81L16.211,193.109L15.984,193.41L15.76,193.712L15.537,194.015L15.316,194.32L15.097,194.626L14.879,194.934L14.664,195.243L14.45,195.553L14.238,195.865L14.028,196.178L13.82,196.492L13.613,196.808L13.408,197.125L13.206,197.443L13.005,197.762L12.806,198.083L12.609,198.405L12.414,198.729L12.22,199.053L12.029,199.379L11.839,199.706L11.652,200.034L11.466,200.364L11.282,200.695L11.101,201.027L10.921,201.36L10.743,201.694L10.567,202.03L10.393,202.367L10.221,202.705L10.051,203.044L9.884,203.384L9.718,203.726L9.554,204.068L9.392,204.412L9.232,204.757L9.074,205.103L8.918,205.45L8.765,205.798L8.613,206.147L8.464,206.498L8.316,206.849L8.171,207.202L8.027,207.555L7.886,207.91L7.747,208.266L7.61,208.623L7.475,208.98L7.342,209.339L7.212,209.699L7.083,210.06L6.957,210.422L6.833,210.785L6.711,211.149L6.591,211.514L6.473,211.879L6.358,212.246L6.245,212.614L6.134,212.983L6.025,213.353L5.918,213.723L5.814,214.095L5.712,214.467L5.612,214.841L5.514,215.215L5.419,215.59L5.325,215.966L5.235,216.343L5.146,216.721L5.06,217.1L4.976,217.48L4.894,217.86L4.815,218.242L4.738,218.624L4.663,219.007L4.591,219.391L4.52,219.776L4.453,220.161L4.387,220.547L4.324,220.935L4.264,221.323L4.206,221.711L4.15,222.101L4.096,222.491L4.045,222.882L3.997,223.274L3.951,223.667L3.907,224.06L3.865,224.454L3.827,224.849L3.79,225.244L3.756,225.641L3.725,226.038L3.696,226.435L3.669,226.834L3.645,227.233L3.623,227.632L3.604,228.033L3.588,228.434L3.574,228.836L3.562,229.238L3.553,229.641L3.547,230.045L3.543,230.449L3.542,230.854L3.543,231.259L3.547,231.663L3.553,232.067L3.562,232.47L3.574,232.873L3.588,233.274L3.604,233.676L3.623,234.076L3.645,234.476L3.669,234.875L3.696,235.273L3.725,235.671L3.756,236.068L3.79,236.464L3.827,236.859L3.865,237.254L3.907,237.648L3.951,238.042L3.997,238.434L4.045,238.826L4.096,239.217L4.15,239.607L4.206,239.997L4.264,240.386L4.324,240.774L4.387,241.161L4.453,241.547L4.52,241.933L4.591,242.317L4.663,242.701L4.738,243.084L4.815,243.467L4.894,243.848L4.976,244.229L5.06,244.608L5.146,244.987L5.235,245.365L5.325,245.742L5.419,246.118L5.514,246.493L5.612,246.868L5.712,247.241L5.814,247.614L5.918,247.985L6.025,248.356L6.134,248.725L6.245,249.094L6.358,249.462L6.473,249.829L6.591,250.195L6.711,250.56L6.833,250.924L6.957,251.286L7.083,251.648L7.212,252.009L7.342,252.369L7.475,252.728L7.61,253.086L7.747,253.443L7.886,253.798L8.027,254.153L8.171,254.507L8.316,254.859L8.464,255.211L8.613,255.561L8.765,255.91L8.918,256.258L9.074,256.606L9.232,256.952L9.392,257.296L9.554,257.64L9.718,257.983L9.884,258.324L10.051,258.664L10.221,259.004L10.393,259.342L10.567,259.678L10.743,260.014L10.921,260.348L11.101,260.682L11.282,261.014L11.466,261.344L11.652,261.674L11.839,262.002L12.029,262.329L12.22,262.655L12.414,262.98L12.609,263.303L12.806,263.625L13.005,263.946L13.206,264.265L13.408,264.584L13.613,264.901L13.82,265.216L14.028,265.531L14.238,265.843L14.45,266.155L14.664,266.465L14.879,266.774L15.097,267.082L15.316,267.388L15.537,267.693L15.76,267.997L15.984,268.299L16.211,268.599L16.439,268.899L16.669,269.197L16.9,269.493L17.134,269.788L17.369,270.082L17.606,270.374L17.844,270.665L18.084,270.954L18.326,271.242L18.57,271.528L18.815,271.813L19.062,272.096L19.311,272.378L19.561,272.658L19.813,272.937L20.067,273.215L20.322,273.49L20.579,273.765L20.837,274.037L21.097,274.309L21.359,274.578L21.622,274.846L21.887,275.113L22.154,275.378L22.422,275.641L22.691,275.903L22.963,276.163L23.235,276.421L23.51,276.678L23.785,276.933L24.063,277.187L24.342,277.439L24.622,277.689L24.904,277.938L25.187,278.185L25.472,278.43L25.758,278.674L26.046,278.916L26.335,279.156L26.626,279.394L26.918,279.631L27.212,279.866L27.507,280.1L27.803,280.331L28.101,280.561L28.401,280.789L28.701,281.016L29.003,281.24L29.307,281.463L29.612,281.684L29.918,281.903L30.226,282.121L30.535,282.336L30.845,282.55L31.157,282.762L31.47,282.972L31.784,283.18L32.099,283.387L32.416,283.592L32.735,283.794L33.054,283.995L33.375,284.194L33.697,284.391L34.02,284.586L34.345,284.78L34.671,284.971L34.998,285.161L35.326,285.348L35.656,285.534L35.986,285.718L36.318,285.899L36.652,286.079L36.986,286.257L37.322,286.433L37.658,286.607L37.996,286.779L38.336,286.949L38.676,287.117L39.017,287.282L39.36,287.446L39.704,287.608L40.048,287.768L40.394,287.926L40.742,288.082L41.09,288.235L41.439,288.387L41.789,288.537L42.141,288.684L42.493,288.829L42.847,288.973L43.202,289.114L43.557,289.253L43.914,289.39L44.272,289.525L44.631,289.658L44.991,289.788L45.352,289.917L45.714,290.043L46.076,290.167L46.44,290.289L46.805,290.409L47.171,290.527L47.538,290.642L47.906,290.755L48.275,290.866L48.644,290.975L49.015,291.082L49.386,291.186L49.759,291.288L50.132,291.388L50.507,291.486L50.882,291.581L51.258,291.675L51.635,291.765L52.013,291.854L52.392,291.94L52.771,292.024L53.152,292.106L53.533,292.185L53.916,292.262L54.299,292.337L54.683,292.409L55.067,292.48L55.453,292.547L55.839,292.613L56.226,292.676L56.614,292.736L57.003,292.794L57.393,292.85L57.783,292.904L58.174,292.955L58.566,293.003L58.958,293.049L59.352,293.093L59.746,293.135L60.14,293.173L60.536,293.21L60.932,293.244L61.329,293.275L61.727,293.304L62.125,293.331L62.524,293.355L62.924,293.377L63.324,293.396L63.726,293.412L64.127,293.426L64.53,293.438L64.933,293.447L65.337,293.453L65.741,293.457L66.146,293.458L66.551,293.457L66.955,293.453L67.359,293.447L67.762,293.438L68.164,293.426L68.566,293.412L68.967,293.396L69.368,293.377L69.767,293.355L70.166,293.331L70.565,293.304L70.962,293.275L71.359,293.244L71.756,293.21L72.151,293.173L72.546,293.135L72.94,293.093L73.333,293.049L73.726,293.003L74.118,292.955L74.509,292.904L74.899,292.85L75.289,292.794L75.677,292.736L76.065,292.676L76.453,292.613L76.839,292.547L77.224,292.48L77.609,292.409L77.993,292.337L78.376,292.262L78.758,292.185L79.14,292.106L79.52,292.024L79.9,291.94L80.279,291.854L80.657,291.765L81.034,291.675L81.41,291.581L81.785,291.486L82.159,291.388L82.533,291.288L82.905,291.186L83.277,291.082L83.647,290.975L84.017,290.866L84.386,290.755L84.754,290.642L85.121,290.527L85.486,290.409L85.851,290.289L86.215,290.167L86.578,290.043L86.94,289.917L87.301,289.788L87.661,289.658L88.02,289.525L88.377,289.39L88.734,289.253L89.09,289.114L89.445,288.973L89.798,288.829L90.151,288.684L90.502,288.537L90.853,288.387L91.202,288.235L91.55,288.082L91.897,287.926L92.243,287.768L92.588,287.608L92.932,287.446L93.274,287.282L93.616,287.117L93.956,286.949L94.295,286.779L94.633,286.607L94.97,286.433L95.306,286.257L95.64,286.079L95.973,285.899L96.305,285.718L96.636,285.534L96.966,285.348L97.294,285.161L97.621,284.971L97.947,284.78L98.271,284.586L98.595,284.391L98.917,284.194L99.238,283.995L99.557,283.794L99.875,283.592L100.192,283.387L100.508,283.18L100.822,282.972L101.135,282.762L101.447,282.55L101.757,282.336L102.066,282.121L102.374,281.903L102.68,281.684L102.985,281.463L103.288,281.24L103.59,281.016L103.891,280.789L104.19,280.561L104.488,280.331L104.785,280.1L105.08,279.866L105.373,279.631L105.665,279.394L105.956,279.156L106.246,278.916L106.533,278.674L106.82,278.43L107.104,278.185L107.388,277.938L107.67,277.689L107.95,277.439L108.229,277.187L108.506,276.933L108.782,276.678L109.056,276.421L109.329,276.163L109.6,275.903L109.87,275.641L110.138,275.378L110.404,275.113L110.669,274.846L110.933,274.578L111.194,274.309L111.454,274.037L111.713,273.765L111.97,273.49L112.225,273.215L112.479,272.937L112.731,272.658L112.981,272.378L113.23,272.096L113.476,271.813L113.722,271.528L113.965,271.242L114.207,270.954L114.448,270.665L114.686,270.374L114.923,270.082L115.158,269.788L115.391,269.493L115.623,269.197L115.853,268.899L116.081,268.599L116.307,268.299L116.532,267.997L116.755,267.693L116.976,267.388L117.195,267.082L117.412,266.774L117.628,266.465L117.842,266.155L118.054,265.843L118.264,265.531L118.472,265.216L118.679,264.901L118.883,264.584L119.086,264.265L119.287,263.946L119.486,263.625L119.683,263.303L119.878,262.98L120.071,262.655L120.263,262.329L120.452,262.002L120.64,261.674L120.826,261.344L121.009,261.014L121.191,260.682L121.371,260.348L121.549,260.014L121.725,259.678L121.898,259.342L122.07,259.004L122.24,258.664L122.408,258.324L122.574,257.983L122.738,257.64L122.9,257.296L123.06,256.952L123.217,256.606L123.373,256.258L123.527,255.91L123.679,255.561L123.828,255.211L123.976,254.859L124.121,254.507L124.264,254.153L124.406,253.798L124.545,253.443L124.682,253.086L124.817,252.728L124.949,252.369L125.08,252.009L125.208,251.648L125.335,251.286L125.459,250.923L125.581,250.56L125.701,250.195L125.818,249.829L125.934,249.462L126.047,249.094L126.158,248.726L126.267,248.356L126.374,247.985L126.478,247.614L126.58,247.241L126.68,246.868L126.778,246.493L126.873,246.118L126.966,245.742L127.057,245.365L127.146,244.987L127.232,244.608L127.316,244.229L127.398,243.848L127.477,243.467L127.554,243.084L127.629,242.701L127.701,242.317L127.771,241.933L127.839,241.547L127.904,241.161L127.967,240.774L128.028,240.386L128.086,239.997L128.142,239.608L128.195,239.217L128.246,238.826L128.295,238.434L128.341,238.042L128.385,237.648L128.426,237.254L128.465,236.859L128.502,236.464L128.535,236.068L128.567,235.671L128.596,235.273L128.623,234.875L128.647,234.476L128.668,234.076L128.687,233.676L128.704,233.274L128.718,232.873L128.729,232.47L128.738,232.067L128.745,231.664L128.748,231.259L128.75,230.854L128.748,230.449L128.745,230.045L128.738,229.641L128.729,229.238L128.718,228.836L128.704,228.434L128.687,228.033L128.668,227.632L128.647,227.233L128.623,226.834L128.596,226.435L128.567,226.038L128.535,225.641L128.502,225.244L128.465,224.849L128.426,224.454L128.385,224.06L128.341,223.667L128.295,223.274L128.246,222.882L128.195,222.491L128.142,222.101L128.086,221.711L128.028,221.323L127.967,220.935L127.904,220.547L127.839,220.161L127.771,219.776L127.701,219.391L127.629,219.007L127.554,218.624L127.477,218.242L127.398,217.86L127.316,217.48L127.232,217.1L127.146,216.721L127.057,216.343L126.966,215.966L126.873,215.59L126.778,215.215L126.68,214.841L126.58,214.467L126.478,214.095L126.374,213.723L126.267,213.353L126.158,212.983L126.047,212.614L125.934,212.246L125.818,211.879L125.701,211.514L125.581,211.149L125.459,210.785L125.335,210.422L125.208,210.06L125.08,209.699L124.949,209.339L124.817,208.98L124.682,208.623L124.545,208.266L124.406,207.91L124.264,207.555L124.121,207.202L123.976,206.849L123.828,206.498L123.679,206.147L123.527,205.798L123.373,205.45L123.217,205.103L123.06,204.757L122.9,204.412L122.738,204.068L122.574,203.726L122.408,203.384L122.24,203.044L122.07,202.705L121.898,202.367L121.725,202.03L121.549,201.694L121.371,201.36L121.191,201.027L121.009,200.695L120.826,200.364L120.64,200.034L120.452,199.706L120.263,199.379L120.071,199.053L119.878,198.729L119.683,198.405L119.486,198.083L119.287,197.762L119.086,197.443L118.883,197.125L118.679,196.808L118.472,196.492L118.264,196.178L118.054,195.865L117.842,195.553L117.628,195.243L117.412,194.934L117.195,194.626L116.976,194.32L116.755,194.015L116.532,193.712L116.307,193.41L116.081,193.109L115.853,192.81L115.623,192.512L115.391,192.215L115.158,191.92L114.923,191.627L114.686,191.334L114.448,191.044L114.207,190.755L113.965,190.467L113.722,190.18L113.476,189.896L113.23,189.612L112.981,189.33L112.731,189.05L112.479,188.771L112.225,188.494L111.97,188.218L111.713,187.944L111.454,187.671L111.194,187.4L110.933,187.13L110.669,186.862L110.404,186.596L110.138,186.331L109.87,186.067L109.6,185.806L109.329,185.546L109.056,185.287L108.782,185.03L108.506,184.775L108.229,184.521L107.95,184.269L107.67,184.019L107.388,183.77L107.104,183.524L106.82,183.278L106.533,183.035L106.246,182.793L105.956,182.552L105.666,182.314L105.373,182.077L105.08,181.842L104.785,181.609L104.488,181.377L104.19,181.147L103.891,180.919L103.59,180.693L103.288,180.468L102.985,180.245L102.68,180.024L102.374,179.805L102.066,179.588L101.757,179.372L101.447,179.158L101.135,178.946L100.822,178.736L100.508,178.528L100.192,178.321L99.875,178.117L99.557,177.914L99.238,177.713L98.917,177.514L98.595,177.317L98.271,177.122L97.947,176.929L97.621,176.737L97.294,176.548L96.966,176.36L96.636,176.174L96.305,175.991L95.973,175.809L95.64,175.629L95.306,175.451L94.97,175.275L94.633,175.102L94.295,174.93L93.956,174.76L93.616,174.592L93.274,174.426L92.932,174.262L92.588,174.1L92.243,173.94L91.897,173.783L91.55,173.627L91.202,173.473L90.853,173.321L90.502,173.172L90.151,173.024L89.798,172.879L89.445,172.736L89.09,172.594L88.734,172.455L88.377,172.318L88.02,172.183L87.661,172.051L87.301,171.92L86.94,171.792L86.578,171.665L86.215,171.541L85.851,171.419L85.486,171.299L85.121,171.182L84.754,171.066L84.386,170.953L84.017,170.842L83.647,170.733L83.277,170.626L82.905,170.522L82.533,170.42L82.159,170.32L81.785,170.222L81.41,170.127L81.034,170.034L80.657,169.943L80.279,169.854L79.9,169.768L79.52,169.684L79.14,169.602L78.758,169.523L78.376,169.446L77.993,169.371L77.609,169.299L77.224,169.229L76.839,169.161L76.453,169.096L76.065,169.033L75.677,168.972L75.289,168.914L74.899,168.858L74.509,168.805L74.118,168.754L73.726,168.705L73.333,168.659L72.94,168.615L72.546,168.574L72.151,168.535L71.756,168.498L71.359,168.465L70.962,168.433L70.565,168.404L70.166,168.377L69.767,168.353L69.368,168.332L68.967,168.313L68.566,168.296L68.164,168.282L67.762,168.271L67.359,168.262L66.955,168.255L66.551,168.252L66.146,168.25L65.741,168.252Z" style="fill:white;"/>
        </g>
        <g id="g4154" transform="matrix(1,0,0,1,-2.58446,2.58446)">
            <path id="path4982" d="M104.215,201.977L42.438,263.755L33.245,254.562L95.023,192.785L104.215,201.977Z" style="fill:white;"/>
            <path id="path4152" d="M104.215,254.562L95.023,263.755L33.245,201.977L42.438,192.785L104.215,254.562Z" style="fill:white;"/>
        </g>
    </g>
</svg>
