/* XPM */
static char *logo_icon___[] = {
/* columns rows colors chars-per-pixel */
"16 16 29 1",
"  c #000000",
". c #020202",
"X c #040404",
"o c #050505",
"O c #0A0A0A",
"+ c #0E0E0E",
"@ c #161616",
"# c #1B1B1B",
"$ c #1C1C1C",
"% c #232323",
"& c #282828",
"* c #2B2B2B",
"= c #2F2F2F",
"- c #323232",
"; c #343434",
": c #3A3A3A",
"> c #3F3F3F",
", c #474747",
"< c #505050",
"1 c #535353",
"2 c #5E5E5E",
"3 c #636363",
"4 c #6B6B6B",
"5 c #767676",
"6 c #7F7F7F",
"7 c #838383",
"8 c #878787",
"9 c #949494",
"0 c None",
/* pixels */
"0000 X;000000000",
"0000000<83>00000",
"00000000+698*000",
"000000000:457000",
"000000000-,<2000",
"00000000X@%-,*00",
"0000000    O$## ",
"0000         000",
"0             00",
"0 00000000     0",
"0000000000    00",
"0000000000    00",
"0000000000   000",
"000000000  00000",
"00000000  000000",
"0000000 00000000"
};
