/* XPM */
static char * logo_icon_32_xpm[] = {
"32 32 72 1",
" 	c None",
".	c #000000",
"+	c #010101",
"@	c #0E0E0E",
"#	c #343434",
"$	c #3F3F3F",
"%	c #202020",
"&	c #161616",
"*	c #626262",
"=	c #A8A8A8",
"-	c #919191",
";	c #353535",
">	c #080808",
",	c #060606",
"'	c #777777",
")	c #969696",
"!	c #9E9E9E",
"~	c #AAAAAA",
"{	c #848484",
"]	c #393939",
"^	c #4C4C4C",
"/	c #8B8B8B",
"(	c #8F8F8F",
"_	c #949494",
":	c #9D9D9D",
"<	c #A3A3A3",
"[	c #474747",
"}	c #5B5B5B",
"|	c #7C7C7C",
"1	c #838383",
"2	c #898989",
"3	c #090909",
"4	c #1C1C1C",
"5	c #6D6D6D",
"6	c #717171",
"7	c #7D7D7D",
"8	c #878787",
"9	c #767676",
"0	c #101010",
"a	c #5F5F5F",
"b	c #656565",
"c	c #6B6B6B",
"d	c #707070",
"e	c #808080",
"f	c #1F1F1F",
"g	c #1B1B1B",
"h	c #4D4D4D",
"i	c #535353",
"j	c #595959",
"k	c #6E6E6E",
"l	c #141414",
"m	c #2E2E2E",
"n	c #3B3B3B",
"o	c #414141",
"p	c #525252",
"q	c #494949",
"r	c #0F0F0F",
"s	c #1D1D1D",
"t	c #232323",
"u	c #292929",
"v	c #2F2F2F",
"w	c #212121",
"x	c #050505",
"y	c #0A0A0A",
"z	c #111111",
"A	c #171717",
"B	c #2D2D2D",
"C	c #2C2C2C",
"D	c #040404",
"E	c #373737",
"F	c #070707",
"G	c #020202",
"      .+...                     ",
"         ..@#$%..               ",
"            .&*=-*;>.           ",
"               ,')!~{].         ",
"                .^/(_:<[.       ",
"                 .}|12()23      ",
"                  456'7189.     ",
"                  0}abcd9ef     ",
"                  g[hijabkl     ",
"                 .m#no[hpq.     ",
"                .rstuv;now.     ",
"               .+xyzAstuB8aC&.  ",
"              .....+DyzA4qEvB%..",
"            ..........+DFxG..   ",
"         .................      ",
"     .......................    ",
"  ..........................    ",
"... .......     .............   ",
"   ....            ..........   ",
" ..                 .........   ",
"                    .........   ",
"                    ........    ",
"                    ........    ",
"                    .......     ",
"                   .......      ",
"                   .....        ",
"                  .....         ",
"                 .....          ",
"                ....            ",
"               ...              ",
"              ...               ",
"             ..                 "};
