<?xml version="1.0" encoding="UTF-8" standalone="no"?>
<!-- Created with Inkscape (http://www.inkscape.org/) -->
<svg
   xmlns:dc="http://purl.org/dc/elements/1.1/"
   xmlns:cc="http://creativecommons.org/ns#"
   xmlns:rdf="http://www.w3.org/1999/02/22-rdf-syntax-ns#"
   xmlns:svg="http://www.w3.org/2000/svg"
   xmlns="http://www.w3.org/2000/svg"
   xmlns:sodipodi="http://sodipodi.sourceforge.net/DTD/sodipodi-0.dtd"
   xmlns:inkscape="http://www.inkscape.org/namespaces/inkscape"
   width="744.09003"
   height="744"
   id="svg2459"
   sodipodi:version="0.32"
   inkscape:version="0.46"
   sodipodi:docname="logo-website.svg"
   inkscape:output_extension="org.inkscape.output.svg.inkscape"
   inkscape:export-xdpi="60.476555"
   inkscape:export-ydpi="60.476555"
   version="1.0">
  <defs
     id="defs2461">
    <linearGradient
       id="linearGradient4699">
      <stop
         style="stop-color:#000000;stop-opacity:1;"
         offset="0"
         id="stop4701" />
      <stop
         style="stop-color:#000000;stop-opacity:0;"
         offset="1"
         id="stop4703" />
    </linearGradient>
    <linearGradient
       id="linearGradient4687">
      <stop
         style="stop-color:#000000;stop-opacity:1;"
         offset="0"
         id="stop4689" />
      <stop
         style="stop-color:#000000;stop-opacity:0;"
         offset="1"
         id="stop4691" />
    </linearGradient>
    <inkscape:perspective
       sodipodi:type="inkscape:persp3d"
       inkscape:vp_x="0 : 526.18109 : 1"
       inkscape:vp_y="0 : 1000 : 0"
       inkscape:vp_z="744.09448 : 526.18109 : 1"
       inkscape:persp3d-origin="372.04724 : 350.78739 : 1"
       id="perspective2390" />
    <filter
       inkscape:collect="always"
       id="filter3237">
      <feGaussianBlur
         inkscape:collect="always"
         stdDeviation="15.00154"
         id="feGaussianBlur3239" />
    </filter>
  </defs>
  <sodipodi:namedview
     id="base"
     pagecolor="#ffffff"
     bordercolor="#666666"
     borderopacity="1.0"
     gridtolerance="10000"
     guidetolerance="10"
     objecttolerance="10"
     inkscape:pageopacity="0.0"
     inkscape:pageshadow="2"
     inkscape:zoom="1.0074671"
     inkscape:cx="375"
     inkscape:cy="367.42652"
     inkscape:document-units="px"
     inkscape:current-layer="layer1"
     showgrid="false"
     inkscape:window-width="1169"
     inkscape:window-height="990"
     inkscape:window-x="275"
     inkscape:window-y="59" />
  <metadata
     id="metadata2464">
    <rdf:RDF>
      <cc:Work
         rdf:about="">
        <dc:format>image/svg+xml</dc:format>
        <dc:type
           rdf:resource="http://purl.org/dc/dcmitype/StillImage" />
      </cc:Work>
    </rdf:RDF>
  </metadata>
  <g
     inkscape:label="Layer 1"
     inkscape:groupmode="layer"
     id="layer1">
    <path
       style="opacity:0.35820899;fill:#000000;fill-opacity:1;fill-rule:nonzero;stroke:#000000;stroke-width:0.82541478px;stroke-linecap:butt;stroke-linejoin:miter;stroke-opacity:1;filter:url(#filter3237)"
       d="M 115.78906,165.28485 C 350.10074,221.97501 309.63531,304.49349 212.19531,373.84735 C 164.88631,390.51853 105.57186,410.97398 28.664058,434.5661 C 65.101978,429.72741 98.209468,426.47848 128.03906,424.8161 C 98.134688,440.73611 68.227048,455.00104 42.414058,466.8786 C 101.67266,450.07359 152.5607,435.94556 196.60156,424.0036 C 357.97622,430.8864 369.87302,508.77947 220.75781,659.0036 C 445.02711,532.63072 503.94812,439.58103 370.66406,379.59735 C 439.14989,363.96856 465.05721,361.86643 479.53906,363.2536 C 444.72231,339.57148 420.60352,327.54967 393.66406,325.3161 C 452.90693,238.96094 326.66051,184.93904 115.78906,165.28485 z M 396.16406,338.9411 C 400.59386,338.94111 404.19531,342.54255 404.19531,346.97235 C 404.1953,351.40217 400.59387,354.97235 396.16406,354.97235 C 391.73423,354.97236 388.13281,351.40217 388.13281,346.97235 C 388.1328,342.54255 391.73424,338.9411 396.16406,338.9411 z"
       id="path2441"
       transform="matrix(1.2286617,0,0,1.2286617,7.4362342,-159.13251)" />
    <path
       style="opacity:0.35820899;fill:#000000;fill-opacity:1;fill-rule:nonzero;stroke:#000000;stroke-width:1.01415551px;stroke-linecap:butt;stroke-linejoin:miter;stroke-opacity:1"
       d="M 193.43987,29.75602 C 481.36147,99.41675 431.64004,200.8289 311.89053,286.04717 C 253.7708,306.52764 180.8629,331.63204 86.392721,360.61157 C 131.17019,354.66545 171.87405,350.6743 208.52937,348.63212 C 171.78701,368.19243 135.04064,385.7192 103.3252,400.3127 C 176.12967,379.66626 238.62196,362.34432 292.73109,347.67223 C 491.00482,356.1292 505.62272,451.79506 322.41095,636.36933 C 597.96203,481.09976 670.39442,366.77322 506.63341,293.07357 C 590.77932,273.87108 622.61065,271.32667 640.40395,273.03103 C 597.62594,243.93372 567.99211,229.12458 534.89262,226.38028 C 607.67851,120.28026 452.52778,53.90421 193.43987,29.75602 z M 537.96428,243.1208 C 543.40703,243.12081 547.79357,247.54576 547.79357,252.98849 C 547.79358,258.43124 543.40702,262.85618 537.96428,262.85618 C 532.52154,262.85618 528.09659,258.43124 528.09659,252.98849 C 528.09659,247.54576 532.52153,243.1208 537.96428,243.1208 z"
       id="path2469" />
    <text
       xml:space="preserve"
       style="font-size:150.20011902px;font-style:normal;font-variant:normal;font-weight:normal;font-stretch:normal;text-align:start;line-height:125%;writing-mode:lr-tb;text-anchor:start;fill:#000000;fill-opacity:1;stroke:none;stroke-width:1px;stroke-linecap:butt;stroke-linejoin:miter;stroke-opacity:1;font-family:Bodoni SvtyTwo OS ITC TT;-inkscape-font-specification:Bodoni SvtyTwo OS ITC TT"
       x="38.823608"
       y="525.9693"
       id="text4727"
       sodipodi:linespacing="125%"
       transform="scale(0.9359712,1.0684089)"><tspan
         sodipodi:role="line"
         id="tspan4729"
         x="38.823608"
         y="525.9693">Swift</tspan></text>
    <text
       xml:space="preserve"
       style="font-size:58.8051033px;font-style:normal;font-variant:normal;font-weight:normal;font-stretch:normal;text-align:start;line-height:125%;writing-mode:lr-tb;text-anchor:start;fill:#000000;fill-opacity:1;stroke:none;stroke-width:1px;stroke-linecap:butt;stroke-linejoin:miter;stroke-opacity:1;font-family:Savoye LET;-inkscape-font-specification:Savoye LET"
       x="288.1492"
       y="689.04797"
       id="text4731"
       sodipodi:linespacing="125%"
       transform="scale(0.9692673,1.0317072)"><tspan
         sodipodi:role="line"
         id="tspan4733"
         x="288.1492"
         y="689.04797">Coming soon ...</tspan></text>
  </g>
</svg>
